# xmcd
#
# Track frame offsets:
#   150
#   13241
#   26871
#   42840
#   55077
#   70125
#   84260
#   97429
#   111392
#   123292
#   137776
#   153204
#   165987
#   179903
#   193307
#   205038
#   218621
#   230999
#   243970
#   258622
#   271891
#   285178
#   301564
#   314359
#   329474
#
# Disc length: 4590 seconds
#
# Revision: 0
# Processed by: cddbd v1.5.2PL0 Copyright (c) Steve Scherf et al.
# Submitted via: uFREEDB ActiveX Control 1.5
#
DISCID=6c11ec19
DTITLE=varios - conexão sertaneja
DYEAR=1900
DGENRE=Country
TTITLE0=se intrometeu
TTITLE1=vou abrir o jogo
TTITLE2=chove, chove
TTITLE3=tchau, tchau
TTITLE4=chuva
TTITLE5=adrenalina
TTITLE6=bancando a louca
TTITLE7=bola de cristal
TTITLE8=zuar e beber
TTITLE9=tentativas em vao
TTITLE10=tenho que sonhar
TTITLE11=e dai
TTITLE12=inventor dos amores
TTITLE13=mil anos
TTITLE14=refem de mim
TTITLE15=top do verao
TTITLE16=a carne é fraca
TTITLE17=fugidinha
TTITLE18=que se dane o mundo
TTITLE19=amo noite e dia
TTITLE20=sem esse coraçao
TTITLE21=armadilha
TTITLE22=to passando mal
TTITLE23=ta se achando
TTITLE24=boa sorte pra voce
EXTD=
EXTT0=
EXTT1=
EXTT2=
EXTT3=
EXTT4=
EXTT5=
EXTT6=
EXTT7=
EXTT8=
EXTT9=
EXTT10=
EXTT11=
EXTT12=
EXTT13=
EXTT14=
EXTT15=
EXTT16=
EXTT17=
EXTT18=
EXTT19=
EXTT20=
EXTT21=
EXTT22=
EXTT23=
EXTT24=
PLAYORDER=
